<?xml version="1.0" encoding="UTF-8"?>
<svg id="Layer_1" xmlns="http://www.w3.org/2000/svg" width="441.06" height="390.1" viewBox="0 0 441.06 390.1">
  <defs>
    <style>
      .cls-1 {
        fill: #e3a627;
      }
    </style>
  </defs>
  <path class="cls-1" d="M178.39,196.38c5.96-.45,10.78-4.95,11.72-11.21h-25.23c1.1,7.03,6.86,11.72,13.51,11.21Z"/>
  <path class="cls-1" d="M196.22,149.76c-4.86.01-9.72.02-14.58.04-2.24,0-4.06,1.53-4.84,3.64-10.39,28.16.06-.12-10.36,28.02h23.85l5.93-31.69Z"/>
  <path class="cls-1" d="M190.09,193.06c-.8,1.23-2.56,3.58-5.7,5.27-1.23.67-4.3,2.11-8.31,1.87-1.28-.08-2.33-.31-3.06-.51.05,14.25.1,28.51.15,42.76.02,4.54,3.7,8.2,8.23,8.2h78.72c4.55,0,8.23-3.69,8.23-8.23v-43.13c-.57.23-1.44.54-2.53.73-4.09.71-7.42-.89-9.07-1.69-3.38-1.63-5.54-3.94-6.75-5.49-.6.86-4.94,6.92-12.87,7.6-6.25.54-12.38-2.47-16.04-7.81-.58.87-5.31,7.73-14.14,8.44-10.36.83-16.57-7.59-16.88-8.02ZM229.55,208.66c0-1.28,1.03-2.31,2.31-2.31h18.17c1.28,0,2.31,1.03,2.31,2.31v18.17c0,1.28-1.03,2.31-2.31,2.31h-18.17c-1.28,0-2.31-1.03-2.31-2.31v-18.17ZM216.47,206.35v40.93h-26.58v-40.93h26.58Z"/>
  <path class="cls-1" d="M219,149.7c-6.24.02-12.48.03-18.73.05l-5.93,31.7h24.66v-31.75Z"/>
  <path class="cls-1" d="M192.76,190.94c3.23,4.16,8.28,6.62,13.58,6.34,5.17-.28,9.87-3.15,12.66-7.51v-4.51h-25.37l-.86,5.69Z"/>
  <path class="cls-1" d="M223.01,189.91c3.17,4.55,8.48,7.2,13.93,6.74,4.41-.38,8.41-2.75,11.02-6.35l-.74-5.05h-24.21v4.66Z"/>
  <path class="cls-1" d="M251.94,189.82c3.05,4.96,8.68,7.63,13.9,6.62,5.02-.98,9.14-5.25,10.34-10.76-.05-.14-.1-.28-.16-.42h-24.75l.67,4.56Z"/>
  <path class="cls-1" d="M223.01,149.69v31.76h23.5l-5.73-31.8c-5.93.02-11.85.03-17.78.05Z"/>
  <path class="cls-1" d="M256.61,149.61c-3.93.01-7.85.02-11.78.03l5.73,31.82h24.06l-13.26-28.54c-.73-1.99-2.63-3.31-4.76-3.31Z"/>
</svg>