<svg xmlns="http://www.w3.org/2000/svg" id="Layer_1" viewBox="184.06 128.94 80.71 116.29">
  <defs>
    <style>
      .cls-1 {
        fill: #82827c;
      }
    </style>
  </defs>
  <path class="cls-1" d="M224.42,128.94c-22.29,0-40.36,18.07-40.36,40.36,0,3.83.55,7.53,1.54,11.04.61,2.16,1.29,4.31,2.35,6.25,8.28,15.15,36.47,58.64,36.47,58.64,0,0,28.2-43.49,36.47-58.64,1.06-1.94,1.73-4.09,2.34-6.25,1-3.51,1.54-7.21,1.54-11.04,0-22.29-18.07-40.36-40.36-40.36ZM224.42,187.07c-5.63,0-10.65-2.63-13.91-6.73-2.41-3.03-3.86-6.87-3.86-11.04,0-9.8,7.97-17.77,17.77-17.77s17.77,7.97,17.77,17.77c0,4.17-1.45,8.01-3.86,11.04-3.26,4.1-8.28,6.73-13.91,6.73Z"/>
</svg>