<?xml version="1.0" encoding="UTF-8"?>
<svg id="Layer_1" xmlns="http://www.w3.org/2000/svg" width="441.06" height="390.1" viewBox="0 0 441.06 390.1">
  <defs>
    <style>
      .cls-1 {
        fill: #e3a627;
      }

      .cls-2 {
        fill: #4e4e4e;
      }
    </style>
  </defs>
  <ellipse class="cls-2" cx="220.53" cy="244.18" rx="51.21" ry="28.88"/>
  <g>
    <path class="cls-1" d="M259.29,188.2c0-2.55.04-5.13-.31-7.65-1.68-11.91-7.95-20.65-18.51-26.35-.54-.29-.86-.23-1.31.19-4.49,4.16-9.82,6.35-15.92,6.48-6.43.13-12.09-2.01-16.86-6.36-.55-.5-1-.63-1.61-.21-2.12,1.42-4.4,2.64-6.33,4.28-7.32,6.19-11.58,14.11-12.15,23.7-.37,6.14-.36,12.33-.11,18.48.32,7.73,4.26,13.27,11.2,16.68.52.25,1.08.42,1.59.62,0-2.23.01-4.33,0-6.43-.07-11.34-.16-22.67-.23-34.01-.01-1.63.89-2.6,2.35-2.59,1.35,0,2.22,1.05,2.23,2.62.09,12,.18,23.99.27,35.99,0,.78,0,1.55,0,2.33v.78c0,.46,0,.93,0,1.4h0v.8h0v21.91c0,4.97,4.03,9.01,9.01,9.01s9.01-4.03,9.01-9.01v-20.55h2.04v20.55c0,4.97,4.03,9.01,9.01,9.01s9.01-4.03,9.01-9.01v-22.71h0v-.73c.04-14.25.06-28.49.09-42.74,0-.42.04-.84.12-1.25.21-1.02.9-1.72,1.75-1.83.92-.12,1.84.35,2.24,1.33.28.67.45,1.45.44,2.17-.02,13.98-.08,27.96-.13,41.95,0,.31.03.62.05.92.17.02.23.04.28.03.09-.01.18-.03.26-.07,7.18-2.93,11.58-8.18,12.36-15.92.46-4.56.2-9.19.18-13.79Z"/>
    <path class="cls-1" d="M222.7,156.29c10.93-.05,19.72-8.89,19.66-19.78-.06-10.73-8.95-19.53-19.69-19.47-10.92.06-19.68,8.91-19.62,19.82.06,10.66,8.98,19.49,19.65,19.44Z"/>
  </g>
</svg>