<?xml version="1.0" encoding="UTF-8"?>
<svg id="Layer_1" xmlns="http://www.w3.org/2000/svg" width="434.29" height="356.41" viewBox="0 0 434.29 356.41">
  <defs>
    <style>
      .cls-1 {
        fill: #f2f2f2;
      }
    </style>
  </defs>
  <path class="cls-1" d="M194.18,258.92c-.29-7.15.39-15.56,2.81-23.81,7.56-25.81,30.76-45.21,57.55-47.99,2.31-.24,4.63-.32,6.95-.43,1.85-.09,2.47-.66,2.48-2.51.01-3.32,0-6.64.02-9.96.02-2.23,1.52-3.08,3.41-1.9,13.08,8.16,26.15,16.32,39.21,24.5,1.88,1.18,1.72,2.76-.35,4.05-10.5,6.56-21,13.12-31.5,19.68-2.41,1.51-4.79,3.08-7.26,4.49-.69.39-1.86.64-2.46.31-.59-.33-1.01-1.45-1.04-2.24-.12-3.08-.04-6.17-.05-9.25,0-2.64-.51-3.21-3.19-3.05-16.73.96-29.26,8.73-37.41,23.36-3.56,6.38-5.1,13.34-5.08,20.64.01,5.6,0,11.2,0,16.8,0,3.29-1.39,4.66-4.68,4.66-4.89,0-9.77,0-14.66,0-3.46,0-4.77-1.33-4.77-4.84,0-3.7,0-7.4,0-12.49Z"/>
  <path class="cls-1" d="M193.85,168.86c0-9.96,0-19.93,0-29.89,0-3-.38-3.39-3.32-3.39-3.13,0-6.27.06-9.39-.05-.79-.03-1.75-.45-2.29-1.02-.75-.8-.23-1.76.3-2.6,8.33-13.31,16.64-26.63,24.97-39.93,1.34-2.14,2.9-2.15,4.23-.03,8.33,13.31,16.64,26.63,24.97,39.94.53.84,1.09,1.81.32,2.6-.57.59-1.59,1.02-2.42,1.05-3.27.12-6.55.04-9.82.05-2.18,0-2.76.6-2.76,2.8,0,15.47-.03,30.94.03,46.41,0,2.32-.78,3.95-2.74,5.22-5.21,3.37-9.79,7.48-13.86,12.16-1.66,1.9-3.45,2.44-5.42,1.67-1.93-.75-2.78-2.21-2.79-4.79,0-10.06,0-20.12,0-30.18Z"/>
</svg>