<?xml version="1.0" encoding="UTF-8"?>
<svg id="Layer_1" xmlns="http://www.w3.org/2000/svg" width="441.06" height="390.1" viewBox="0 0 441.06 390.1">
  <defs>
    <style>
      .cls-1 {
        fill: #b7b7b7;
        stroke: #b7b7b7;
        stroke-miterlimit: 10;
        stroke-width: 2px;
      }
    </style>
  </defs>
  <path class="cls-1" d="M178.09,237.97c.62.5,1.53.39,2.03-.23.5-.62.39-1.53-.23-2.03l-21.89-17.39v-49.78l20.1,15.96c.62.5,1.53.39,2.03-.23.5-.62.39-1.53-.23-2.03l-22.37-17.77c-.26-.23-.6-.37-.97-.37-.8,0-1.45.65-1.45,1.45v53.45c0,.43.18.86.55,1.15h0s22.44,17.82,22.44,17.82Z"/>
  <path class="cls-1" d="M187.38,178.55c.62-.5.73-1.41.23-2.03-.5-.62-1.41-.73-2.03-.23l-7.49,5.95h0c-.36.29-.55.71-.55,1.14v53.45c0,.8.65,1.45,1.45,1.45.37,0,.71-.14.97-.37l21.47-17.05,21.54,17.11h0c.63.5,1.54.4,2.03-.23.21-.27.31-.58.31-.9v-53.47c0-.49-.25-.93-.62-1.19l-7.19-5.71c-.62-.5-1.53-.39-2.03.23-.5.62-.39,1.53.23,2.03l6.72,5.33v49.78l-20.02-15.9c-.52-.47-1.31-.51-1.87-.06h0s-20.1,15.96-20.1,15.96v-49.78l6.95-5.52Z"/>
  <path class="cls-1" d="M222.97,235.71c-.62.5-.73,1.41-.23,2.03.5.62,1.41.73,2.03.23l22.44-17.82h0c.36-.29.55-.71.55-1.14v-53.45c0-.8-.65-1.45-1.45-1.45-.37,0-.71.14-.97.37l-22.37,17.77c-.62.5-.73,1.41-.23,2.03.5.62,1.41.73,2.03.23l20.1-15.96v49.78l-21.89,17.39Z"/>
  <path class="cls-1" d="M155.91,204.74c-1.05.53-1.08,2.01-.05,2.57.42.22.91.23,1.33.03.01,0,.01,0,0,0,.24-.12.49-.23.74-.33,1.45-.62,2.95-1.14,4.46-1.59.5-.15.87-.54.99-1.05.25-1.09-.75-2.04-1.82-1.73-1.65.49-3.3,1.07-4.88,1.75-.25.11-.52.22-.77.35h0ZM245.27,216.03c1.06-.43,1.24-1.85.31-2.52-.41-.29-.92-.35-1.38-.17l-.04.02-.08.03-.08.03-.08.03-.08.03-.08.03-.09.03-.09.03-.09.03-.09.03-.09.03-.09.03-.1.04-.1.04-.1.04-.1.04-.1.04-.1.04-.11.04-.11.04-.11.04-.11.04-.11.04-.11.04-.11.04-.12.04-.12.04-.12.04-.12.04-.12.04-.12.04-.12.04-.13.04-.13.04-.13.04-.13.04-.13.04-.13.04-.14.04-.14.04-.14.04-.14.04-.14.04-.14.04-.14.04-.14.04-.15.04-.09.02c-1.18.32-1.47,1.85-.48,2.57.35.25.79.34,1.21.23l.1-.03.15-.04.15-.04.15-.04.15-.04.15-.04.15-.04.15-.04.14-.04.14-.04.14-.04.14-.04.14-.04.14-.04.14-.04.13-.04.13-.04.13-.04.13-.04.13-.04.13-.04.12-.04.12-.04.12-.04.12-.04.12-.04.12-.04.12-.04.11-.04.11-.04.11-.04.11-.04.11-.04.11-.04.1-.04.1-.04.1-.04.1-.04.1-.04.1-.04.09-.04.09-.03.09-.03.09-.03.09-.03.08-.03.08-.03.04-.02h0ZM230.81,219.41c.55-.05,1.01-.39,1.22-.9.41-1-.39-2.08-1.47-1.99h-.02s-.2.02-.2.02l-.2.02-.2.02h-.2s-.2.03-.2.03h-.2s-.21.02-.21.02h-.21s-.21.02-.21.02h-.21s-.21.02-.21.02h-.21s-.21.01-.21.01h-.21s-.21.01-.21.01h-.21s-.21,0-.21,0h-.21s-.21,0-.21,0h-.22s-.22,0-.22,0h-.22s-.22,0-.22,0h-.22s-.22-.01-.22-.01h-.22s-.12-.01-.12-.01c-1.17-.04-1.91,1.25-1.27,2.24.26.39.69.64,1.16.65h.13s.23.01.23.01h.23s.23.01.23.01h.23s.23,0,.23,0h.23s.23,0,.23,0h.23s.23,0,.23,0h.23s.23,0,.23,0h.23s.22-.01.22-.01h.22s.22-.01.22-.01h.22s.22-.02.22-.02h.22s.22-.02.22-.02h.22s.22-.03.22-.03h.22s.22-.03.22-.03l.21-.02.21-.02.21-.02h.02ZM215.96,218.35c1.14.28,2.12-.85,1.69-1.94-.17-.44-.55-.76-1-.87l-.07-.02-.24-.06-.24-.06-.24-.06-.24-.06-.24-.07-.24-.07-.24-.07-.24-.07-.24-.07-.24-.07-.24-.08-.24-.08-.24-.08-.24-.08-.24-.08-.24-.08-.24-.09-.24-.09-.24-.09-.24-.09-.24-.09-.21-.08c-.94-.37-1.94.29-1.98,1.3-.01.62.34,1.16.91,1.39l.22.09.26.1.26.1.26.1.26.09.26.09.26.09.26.09.26.09.26.08.26.08.26.08.26.08.26.08.26.08.26.07.26.07.26.07.26.07.26.07.26.06.25.06.07.02h0ZM202.3,212.38c1.02.68,2.36-.13,2.24-1.35-.05-.43-.27-.81-.64-1.06l-.17-.11-.24-.16-.24-.17-.24-.17-.24-.17-.24-.17-.24-.18-.26-.19-.26-.18-.26-.18-.26-.18-.26-.18-.26-.17-.26-.17-.26-.17-.26-.17-.26-.16-.26-.16-.26-.16-.12-.07c-.87-.51-1.96-.03-2.17.96-.11.61.15,1.2.68,1.52l.1.06.24.15.24.15.24.15.24.16.24.16.24.16.24.16.24.17.24.17.24.17.24.17.24.18.26.19.26.18.26.18.26.18.26.18.26.17.17.11h0ZM189.99,205.61c1.02.35,2.06-.5,1.91-1.57-.08-.54-.45-.99-.96-1.17l-.1-.04-.26-.09-.26-.09-.26-.08-.26-.08-.26-.08-.26-.08-.26-.08-.26-.08-.26-.07-.26-.07-.26-.07-.26-.07-.26-.07-.26-.06-.25-.06-.25-.06-.25-.06-.25-.06-.25-.06-.25-.05-.25-.05-.25-.05h-.05c-.69-.14-1.38.24-1.63.9-.32.84.2,1.76,1.08,1.94h.04s.24.05.24.05l.24.05.24.05.24.05.24.05.24.06.24.06.24.06.24.06.24.06.24.06.24.07.24.07.24.07.24.07.24.07.24.07.24.08.24.08.24.08.24.08.24.08.1.04h0ZM176.25,203.34c.49,0,.94-.25,1.2-.65.63-.97-.06-2.24-1.22-2.24h-.19s-.23,0-.23,0h-.23s-.23,0-.23,0h-.23s-.22.01-.22.01h-.22s-.22.01-.22.01h-.22s-.22.02-.22.02h-.22s-.22.02-.22.02h-.22s-.22.03-.22.03h-.22s-.22.03-.22.03l-.21.02-.21.02-.21.02-.21.02-.21.02-.21.02-.21.02-.21.02-.21.02-.21.02-.2.02h-.12c-.61.09-1.12.55-1.24,1.16-.2.97.61,1.85,1.6,1.73h.11s.19-.04.19-.04l.19-.02.19-.02.2-.02.2-.02.2-.02.2-.02.2-.02.2-.02.2-.02.2-.02h.2s.2-.03.2-.03h.2s.21-.02.21-.02h.21s.21-.02.21-.02h.21s.21-.02.21-.02h.21s.21-.01.21-.01h.21s.21-.01.21-.01h.21s.21,0,.21,0h.21s.19,0,.19,0Z"/>
  <path class="cls-1" d="M201.43,151.81c-9.27,0-16.78,7.51-16.78,16.78,0,1.59.23,3.13.64,4.59.26.9.53,1.79.97,2.6,3.44,6.3,15.16,24.38,15.16,24.38,0,0,11.72-18.08,15.16-24.38.44-.81.72-1.7.97-2.6.41-1.46.64-3,.64-4.59,0-9.27-7.51-16.78-16.78-16.78ZM201.43,175.97c-2.34,0-4.43-1.09-5.78-2.8-1-1.26-1.61-2.86-1.61-4.59,0-4.07,3.31-7.39,7.39-7.39s7.39,3.31,7.39,7.39c0,1.73-.6,3.33-1.61,4.59-1.35,1.7-3.44,2.8-5.78,2.8Z"/>
</svg>