<?xml version="1.0" encoding="UTF-8"?>
<svg id="Layer_1" xmlns="http://www.w3.org/2000/svg" width="441.06" height="390.1" viewBox="0 0 441.06 390.1">
  <defs>
    <style>
      .cls-1 {
        fill: #5fa443;
      }
    </style>
  </defs>
  <path class="cls-1" d="M220.53,128.04c-25.69,0-46.51,20.82-46.51,46.51,0,4.41.63,8.68,1.78,12.72.71,2.49,1.48,4.97,2.7,7.2,9.54,17.46,42.03,67.58,42.03,67.58,0,0,32.49-50.12,42.03-67.58,1.22-2.24,1.99-4.71,2.7-7.2,1.15-4.05,1.78-8.31,1.78-12.72,0-25.69-20.82-46.51-46.51-46.51ZM220.53,195.03c-6.49,0-12.27-3.03-16.03-7.75-2.78-3.5-4.45-7.92-4.45-12.72,0-11.29,9.19-20.48,20.48-20.48s20.48,9.19,20.48,20.48c0,4.81-1.67,9.23-4.45,12.72-3.76,4.72-9.54,7.75-16.03,7.75Z"/>
</svg>