<svg xmlns="http://www.w3.org/2000/svg" id="Layer_1" viewBox="169.18 121.06 102.69 147.97">
  <defs>
    <style>
      .cls-1 {
        fill: #e3a627;
      }
    </style>
  </defs>
  <path class="cls-1" d="M220.53,121.07c-28.36,0-51.35,22.99-51.35,51.35,0,4.87.69,9.58,1.96,14.05.78,2.75,1.64,5.48,2.98,7.95,10.53,19.28,46.4,74.61,46.4,74.61,0,0,35.88-55.34,46.41-74.62,1.35-2.47,2.2-5.2,2.98-7.95,1.27-4.47,1.96-9.18,1.96-14.05,0-28.36-22.99-51.35-51.35-51.35ZM220.53,195.03c-7.16,0-13.55-3.35-17.7-8.56-3.07-3.86-4.91-8.74-4.91-14.05,0-12.47,10.14-22.61,22.61-22.61s22.61,10.14,22.61,22.61c0,5.31-1.84,10.19-4.91,14.05-4.15,5.21-10.54,8.56-17.7,8.56Z"/>
</svg>