<svg xmlns="http://www.w3.org/2000/svg" id="Layer_1" viewBox="178.98 143.08 175.67 159.51">
  <defs>
    <style>
      .cls-1 {
        fill: #ededed;
      }
    </style>
  </defs>
  <path class="cls-1" d="M200.3,216.91c9.41-.72,17.02-7.81,18.5-17.7h-39.82c1.73,11.1,10.83,18.5,21.32,17.7Z"/>
  <path class="cls-1" d="M228.44,143.34c-7.67.02-15.34.04-23.02.06-3.54,0-6.41,2.42-7.64,5.74-16.39,44.45.1-.19-16.36,44.22h37.65l9.36-50.02Z"/>
  <path class="cls-1" d="M218.78,211.67c-1.26,1.94-4.05,5.65-8.99,8.33-1.94,1.05-6.78,3.34-13.11,2.95-2.01-.12-3.67-.49-4.83-.8.08,22.5.16,44.99.24,67.49.03,7.16,5.84,12.95,13,12.95h124.24c7.18,0,13-5.82,13-13v-68.08c-.9.37-2.28.85-4,1.15-6.46,1.13-11.71-1.41-14.32-2.66-5.33-2.57-8.75-6.22-10.66-8.66-.95,1.36-7.8,10.92-20.31,11.99-9.86.84-19.54-3.9-25.31-12.32-.91,1.37-8.37,12.2-22.31,13.32-16.35,1.31-26.16-11.97-26.64-12.65ZM281.05,236.3c0-2.01,1.63-3.64,3.64-3.64h28.68c2.01,0,3.64,1.63,3.64,3.64v28.68c0,2.01-1.63,3.64-3.64,3.64h-28.68c-2.01,0-3.64-1.63-3.64-3.64v-28.68ZM260.41,232.65v64.6h-41.96v-64.6h41.96Z"/>
  <path class="cls-1" d="M264.4,143.25c-9.85.03-19.71.05-29.56.08l-9.36,50.03h38.92v-50.11Z"/>
  <path class="cls-1" d="M222.99,208.33c5.09,6.56,13.07,10.46,21.43,10,8.16-.44,15.57-4.97,19.98-11.86v-7.12h-40.05l-1.36,8.98Z"/>
  <path class="cls-1" d="M270.73,206.7c5,7.18,13.38,11.37,21.98,10.63,6.96-.59,13.27-4.34,17.39-10.02l-1.16-7.97h-38.21v7.35Z"/>
  <path class="cls-1" d="M316.38,206.55c4.82,7.83,13.7,12.05,21.95,10.45,7.92-1.54,14.42-8.28,16.32-16.98-.08-.22-.16-.44-.25-.67h-39.07l1.05,7.2Z"/>
  <path class="cls-1" d="M270.73,143.23v50.13h37.1l-9.04-50.2c-9.35.02-18.7.05-28.06.07Z"/>
  <path class="cls-1" d="M323.76,143.09c-6.2.02-12.39.03-18.59.05l9.04,50.21h37.97l-20.92-45.05c-1.16-3.14-4.16-5.23-7.51-5.22Z"/>
</svg>