<svg xmlns="http://www.w3.org/2000/svg" id="Layer_1" viewBox="208.12 150.95 48.75 88.21">
  <defs>
    <style>
      .cls-1 {
        fill: #b7b7b7;
      }
    </style>
  </defs>
  <path class="cls-1" d="M256.8,198.21c0-1.69.03-3.41-.21-5.08-1.11-7.91-5.28-13.71-12.29-17.5-.36-.19-.57-.15-.87.13-2.98,2.76-6.52,4.22-10.57,4.3-4.27.09-8.03-1.34-11.2-4.23-.37-.34-.66-.42-1.07-.14-1.41.94-2.92,1.76-4.21,2.84-4.86,4.11-7.69,9.37-8.07,15.74-.25,4.08-.24,8.19-.07,12.28.21,5.13,2.83,8.81,7.44,11.08.34.17.72.28,1.06.41,0-1.48,0-2.87,0-4.27-.05-7.53-.1-15.06-.15-22.59,0-1.08.59-1.73,1.56-1.72.89,0,1.47.7,1.48,1.74.06,7.97.12,15.94.18,23.9,0,1.17,0,2.34,0,3.53h0v14.55c0,3.3,2.68,5.98,5.98,5.98s5.98-2.68,5.98-5.98v-13.65h1.35v13.65c0,3.3,2.68,5.98,5.98,5.98s5.98-2.68,5.98-5.98v-15.08h0v-.48c.02-9.47.04-18.93.06-28.4,0-.28.03-.56.08-.83.14-.68.6-1.14,1.16-1.21.61-.08,1.22.23,1.49.88.18.45.3.96.3,1.44-.02,9.29-.05,18.57-.08,27.86,0,.21.02.41.03.61.11.01.15.02.19.02.06,0,.12-.02.17-.04,4.77-1.95,7.69-5.43,8.21-10.57.31-3.03.13-6.1.12-9.16Z"/>
  <path class="cls-1" d="M232.49,177.02c7.26-.04,13.1-5.91,13.06-13.14-.04-7.13-5.95-12.97-13.08-12.93-7.25.04-13.07,5.92-13.03,13.17.04,7.08,5.97,12.94,13.05,12.91Z"/>
</svg>