<svg width="18" height="18" viewBox="0 0 18 18" fill="none" xmlns="http://www.w3.org/2000/svg">
<g clip-path="url(#clip0_8_23)">
<path d="M9 17.9913C6.61815 17.9913 4.2363 17.9913 1.85444 17.9913C0.297732 17.9913 0.0425332 17.817 0.0170133 16.789C-0.00850653 15.6999 0.297732 15.4821 1.95652 15.4821C4.47448 15.4821 6.99244 15.4821 9.5104 15.4821C11.8923 15.4821 14.2741 15.4734 16.656 15.4821C17.6938 15.4821 18.0085 15.8306 17.983 16.7803C17.966 17.6254 17.6427 17.9739 16.758 17.9739C14.172 17.9913 11.586 17.9739 9 17.9739V17.9913Z" fill="#494C5A"/>
<path d="M8.94896 2.51791C6.431 2.51791 3.91304 2.52662 1.39508 2.51791C0.263705 2.5092 -0.0170137 2.16941 -4.3324e-07 1.05421C-4.3324e-07 0.644726 0.212665 0.592451 0.510397 0.383351C1.08034 -0.0174235 1.62476 0.0174264 2.21172 0.0174264C6.90737 0.0174264 11.603 0.0174264 16.2987 0.0174264C16.5709 0.0174264 16.8431 -0.00871103 17.1153 0.0174264C17.7193 0.0958388 18 0.583738 17.9915 1.36786C17.9915 2.00387 17.7533 2.45692 17.1153 2.5092C16.4348 2.56147 15.7543 2.51791 15.0737 2.51791H8.94896Z" fill="#494C5A"/>
<path d="M9.00851 10.0455C6.2949 10.0455 3.58128 10.0455 0.859167 10.0455C0.510396 10.0455 0.025519 10.2546 -8.79634e-07 9.54017C-0.0255207 8.87802 0.0595454 8.29429 0.672022 7.98064C0.893194 7.86737 1.20794 7.96321 1.48015 7.96321C6.70321 7.96321 11.9348 7.98935 17.1578 7.93707C18.017 7.92836 18.0085 8.27686 17.9915 8.91287C17.966 10.0455 17.9915 10.0542 16.9452 10.0542C14.2996 10.0542 11.6541 10.0542 9 10.0542L9.00851 10.0455Z" fill="#494C5A"/>
</g>
<defs>
<clipPath id="clip0_8_23">
<rect width="18" height="18" fill="white"/>
</clipPath>
</defs>
</svg>
