<svg width="6" height="23" viewBox="0 0 6 23" fill="none" xmlns="http://www.w3.org/2000/svg">
<g clip-path="url(#clip0_9_115)">
<path d="M0 2.99C0.19 1.25 1.1 0.170002 2.86 1.61398e-06C4.48 -0.149998 6.02 1.37 5.89 2.99C5.76 4.74 4.72 5.83 2.96 5.83C1.19 5.83 0.26 4.69 0 2.97L0 2.99Z" fill="#494C5A"/>
<path d="M0 11.13C0.22 9.41 1.13 8.32 2.89 8.18C4.51 8.05 6.04 9.58 5.9 11.2C5.75 12.95 4.69 14.02 2.94 14.01C1.17 14.01 0.25 12.85 0 11.13Z" fill="#494C5A"/>
<path d="M5.94998 19.2C5.75998 20.94 4.84999 22.02 3.09998 22.19C1.49998 22.35 -0.0700151 20.82 0.0499849 19.21C0.179985 17.46 1.21999 16.37 2.97998 16.36C4.75998 16.34 5.66998 17.5 5.94998 19.2Z" fill="#494C5A"/>
</g>
<defs>
<clipPath id="clip0_9_115">
<rect width="5.95" height="22.21" fill="white"/>
</clipPath>
</defs>
</svg>
