<svg width="21" height="19" viewBox="0 0 21 19" fill="none" xmlns="http://www.w3.org/2000/svg">
<g clip-path="url(#clip0_8_20)">
<path d="M11.4877 10.6031V17.084C11.4877 17.4504 11.5126 17.8168 11.4877 18.1756C11.4379 18.6947 11.0063 19.0229 10.4585 19.0076C9.93557 18.9924 9.52055 18.6336 9.51225 18.1069C9.49565 16.4046 9.51225 14.7023 9.51225 13.0076V10.6107C7.03043 10.6107 4.66482 10.5725 2.29921 10.6336C1.53557 10.6489 0.979446 10.3282 0.381818 10.0382C0.190909 9.94656 -0.0249016 9.62595 0.0166004 9.48092C0.0996044 9.22137 0.332015 8.92366 0.589328 8.81679C0.863241 8.70229 1.23676 8.79389 1.56877 8.79389C4.1419 8.79389 6.71502 8.79389 9.42925 8.79389C9.45415 8.34351 9.50395 7.8855 9.50395 7.42748C9.51225 5.48092 9.50395 3.54198 9.50395 1.59542C9.50395 1.29008 9.42095 0.961832 9.52055 0.687023C9.66996 0.282443 9.96877 0 10.5166 0C11.0727 0 11.3549 0.29771 11.4711 0.717557C11.5541 1 11.4877 1.32061 11.4877 1.62595C11.4877 3.57252 11.4794 5.51145 11.4877 7.45802C11.496 8.61832 11.6621 8.76336 12.9735 8.77099C15.1482 8.78626 17.3312 8.79389 19.5059 8.77099C20.1285 8.76336 20.8091 8.79389 20.9668 9.36641C21.1494 10.0305 20.3443 10.084 19.9043 10.3817C19.4644 10.687 19.0411 10.5954 18.6095 10.5954C16.302 10.6107 13.9862 10.5954 11.4711 10.5954L11.4877 10.6031Z" fill="#494C5A"/>
</g>
<defs>
<clipPath id="clip0_8_20">
<rect width="21" height="19" fill="white"/>
</clipPath>
</defs>
</svg>
