<svg width="16" height="20" viewBox="0 0 16 20" fill="none" xmlns="http://www.w3.org/2000/svg">
<g clip-path="url(#clip0_5_9)">
<path d="M13.9846 16.3948V3.59852H4.92202C4.77121 3.86036 4.59297 4.16247 4.40788 4.47801H2.87918V1.07419C3.20822 0.758644 3.59897 0.382679 3.99657 0C7.49271 0 11.0026 0 14.5124 0C14.8963 0.268546 15.4379 0.456529 15.6161 0.819067C15.8766 1.34945 15.9726 2.00067 15.9794 2.59819C16.0069 7.43202 16.0137 12.2659 15.9794 17.0997C15.9794 18.2612 15.7052 19.3555 14.3822 19.7986C14.0943 19.8926 13.7789 19.9933 13.4773 19.9933C10.4062 20.0067 7.3419 20 4.67523 20C3.05056 19.577 2.74207 18.6774 2.81062 17.5294C2.8449 16.8916 2.81062 16.2471 2.81062 15.5488H4.70266C4.73693 15.7637 4.78492 16.0524 4.84661 16.3948H13.9777H13.9846Z" fill="#494C5A"/>
<path d="M8.35647 12.5478H6.89632C6.7455 12.4001 6.62896 12.286 6.45758 12.1182V9.86237C6.36161 9.76838 6.32734 9.71467 6.27935 9.70124C6.25193 9.69453 6.19709 9.74824 6.16281 9.7818C4.65467 11.2588 3.14653 12.7358 1.66581 14.186C0.767781 14.3807 0.575836 13.6422 -0.01371 13.2461C1.76864 11.5005 3.43445 9.86908 5.23736 8.10339H2.35818C2.14567 7.89526 1.988 7.74085 1.83033 7.58644V6.51225C3.98286 6.37798 6.14225 6.49211 8.35647 6.4384V12.5478Z" fill="#494C5A"/>
</g>
<defs>
<clipPath id="clip0_5_9">
<rect width="16" height="20" fill="white"/>
</clipPath>
</defs>
</svg>
