<svg width="17" height="19" viewBox="0 0 17 19" fill="none" xmlns="http://www.w3.org/2000/svg">
<g clip-path="url(#clip0_9_50)">
<path d="M1.76389 1.74951V14.1999H12.7917V10.8979H14.559C14.559 12.9667 14.5833 15.0424 14.5451 17.118C14.5313 17.9401 13.9167 18.4768 13.3368 19.0034H1.22569C0.815972 18.5957 0.409722 18.1949 0 17.7906V1.23994C0.430556 0.791525 0.822917 0.383873 1.19444 0H13.3576C14.1354 0.696406 14.7431 1.45056 14.5208 2.63615H12.8854C12.8507 2.3406 12.8194 2.07563 12.7813 1.74611H1.76389V1.74951ZM5.69444 15.9732C5.22569 16.3129 5.01736 16.7104 5.30208 17.2267H9.51042C9.31944 16.7239 9.17014 16.3401 9.03125 15.9732H5.69444Z" fill="#494C5A"/>
<path d="M15.9757 2.31343C16.3889 2.67013 16.7222 2.96228 16.9896 3.19668C16.9896 3.37333 17.0139 3.45486 16.9861 3.48203C15.691 4.67442 14.3924 5.8634 13.0972 7.04899C13.6771 7.80994 14.1215 8.39425 14.5729 8.98534C14.2778 9.26391 13.9896 9.53907 13.6354 9.87538C12.2882 9.60701 10.7743 10.2525 9.38889 9.49491V5.52369C9.60764 5.39121 9.95139 5.18398 10.4271 4.89863C10.8056 5.17039 11.4028 5.60183 12.1632 6.14876C13.3611 4.94279 14.6354 3.66208 15.9757 2.31683V2.31343Z" fill="#494C5A"/>
<path d="M6.29861 7.82692H8.26042V9.74628H6.29861V7.82692Z" fill="#494C5A"/>
<path d="M3.17709 10.8809H5.1389V12.8003H3.17709V10.8809Z" fill="#494C5A"/>
<path d="M8.29167 10.9115V12.8343H6.32986V10.9115H8.29167Z" fill="#494C5A"/>
<path d="M11.4097 10.9115V12.8377H9.44791V10.9115H11.4097Z" fill="#494C5A"/>
</g>
<defs>
<clipPath id="clip0_9_50">
<rect width="17" height="19" fill="white"/>
</clipPath>
</defs>
</svg>
