<svg width="20" height="20" viewBox="0 0 20 20" fill="none" xmlns="http://www.w3.org/2000/svg">
<g clip-path="url(#clip0_9_38)">
<path d="M9.98038 19.9892C4.58632 20.2061 -0.0285168 15.3795 -5.21219e-05 9.96249C0.0284126 4.62371 4.62902 -0.0499533 10.0942 -0.000157867C15.4527 0.0496376 19.9644 4.68062 19.9964 9.98028C20.032 15.3048 15.3495 20.2559 9.97682 19.9927L9.98038 19.9892ZM18.1106 9.99095C17.8793 5.29239 14.4956 1.88851 9.92701 1.93475C5.34063 1.97743 1.96757 5.40265 1.93199 9.95894C1.89641 14.5437 5.29794 18.0934 9.98038 18.1041C14.6059 18.1183 17.9149 14.6397 18.1106 9.99095Z" fill="#494C5A"/>
<path d="M11.1688 8.93473C12.375 9.01654 13.5243 9.09479 14.734 9.17304C14.8123 9.7279 14.8621 10.1049 14.9155 10.4891C13.7591 11.4245 12.4319 10.7523 11.2008 11.1257C10.5817 12.239 11.4677 13.6902 10.4928 14.8817C10.2188 14.896 9.88436 14.9137 9.55346 14.9351C8.50382 13.8076 9.35776 12.3635 8.83828 11.1755C7.6819 10.6918 6.3405 11.4281 5.1272 10.5211C5.14499 10.1654 5.16989 9.73857 5.20192 9.1517C6.47927 9.08056 7.62497 9.01654 8.87742 8.9454C8.9806 7.69696 9.08023 6.50187 9.18341 5.23564C9.73848 5.18229 10.1156 5.14316 10.475 5.10759C11.4179 6.27067 10.7063 7.60804 11.1653 8.93473H11.1688Z" fill="#494C5A"/>
</g>
<defs>
<clipPath id="clip0_9_38">
<rect width="20" height="20" fill="white"/>
</clipPath>
</defs>
</svg>
