<svg width="19" height="21" viewBox="0 0 19 21" fill="none" xmlns="http://www.w3.org/2000/svg">
<g clip-path="url(#clip0_9_121)">
<path d="M13.4871 21C10.5148 21.1239 7.93106 18.4051 7.95265 15.5769C7.95985 14.0753 8.49242 12.7268 9.44962 11.6845C10.5364 10.4964 12.0693 9.72371 13.6598 9.8622C16.7401 10.1173 18.7769 12.0635 18.9928 15.5842C19.1655 18.3978 16.4739 21.1312 13.4871 21.0073V21ZM13.3648 12.1729C13.2784 12.3478 13.1561 12.479 13.1489 12.6102C13.1273 13.3683 13.1345 14.1191 13.1345 14.8771C12.35 14.9354 11.5727 14.9938 10.7883 15.0448C10.7307 15.0448 10.6443 15.0229 10.6227 15.0448C10.5292 15.1614 10.3852 15.2999 10.3924 15.4165C10.3924 15.5259 10.5651 15.7154 10.6731 15.7227C11.1913 15.7518 11.7095 15.7227 12.2205 15.7445C12.8178 15.7737 13.0985 16.0653 13.1345 16.6921C13.1633 17.268 13.1633 17.8438 13.1992 18.4124C13.1992 18.4561 13.3864 18.529 13.4799 18.529C13.5807 18.529 13.7606 18.4634 13.7606 18.4124C13.7966 17.8365 13.7966 17.2607 13.8254 16.6921C13.8614 16.0653 14.1348 15.7737 14.7322 15.7445C15.2504 15.7227 15.7686 15.7591 16.2795 15.7227C16.3875 15.7227 16.553 15.5259 16.5602 15.4165C16.5674 15.2926 16.4235 15.0594 16.3371 15.0521C15.5383 15.0083 14.7394 15.0083 13.9477 14.9865C13.9045 14.1336 13.8758 13.2735 13.8038 12.4207C13.7966 12.3332 13.5519 12.2676 13.3504 12.1583L13.3648 12.1729Z" fill="#494C5A"/>
<path d="M0.00711242 10.1173C0.00711242 7.79209 -0.00728152 5.45956 0.0215064 3.13433C0.0359003 2.10656 0.338173 1.20271 1.10105 0.437348C1.48249 0.051024 1.85673 0 2.31734 0C4.7931 0.00728914 7.26166 -0.00728914 9.73742 0.00728914C11.2848 0.0145783 12.0908 0.809094 12.1052 2.33981C12.1268 4.26414 12.062 6.18119 12.134 8.10552C12.1628 8.93648 11.8605 9.32281 11.1264 9.59979C10.4067 9.86949 10.3851 9.92051 10.3851 9.14058C10.3779 6.86637 10.3707 4.59944 10.3851 2.32523C10.3851 1.86602 10.2484 1.7421 9.80219 1.7421C7.44158 1.76397 5.08817 1.7421 2.72757 1.75668C2.00067 1.75668 1.74158 2.04096 1.73439 2.79903C1.72719 7.57341 1.72719 12.3478 1.73439 17.1222C1.73439 17.9531 1.99348 18.1791 2.87151 18.1937C4.19575 18.2083 5.51999 18.2301 6.83704 18.1864C7.44158 18.1645 7.8806 18.4852 8.26923 18.806C8.49954 18.9955 8.48514 19.4766 8.5787 19.8337C8.30522 19.8702 8.03893 19.9431 7.76545 19.9431C6.03817 19.9504 4.3109 19.9504 2.59082 19.9431C2.03666 19.9431 1.49689 20.016 1.05067 19.4693C0.525294 18.8133 -0.0144785 18.2228 -8.45515e-05 17.2825C0.0287033 14.899 0.00711242 12.5082 0.00711242 10.1173Z" fill="#494C5A"/>
<path d="M6.06704 15.4019C6.8635 15.4019 7.26414 15.6644 7.26893 16.1892C7.27373 16.8258 6.93308 17.1465 6.24696 17.1513C5.79356 17.1513 5.33295 17.1805 4.88674 17.144C4.43333 17.1076 4.12386 16.6557 4.16704 16.1965C4.20302 15.7372 4.45492 15.4675 4.88674 15.4165C5.28257 15.3728 5.6784 15.4092 6.08143 15.4092L6.06704 15.4019Z" fill="#494C5A"/>
</g>
<defs>
<clipPath id="clip0_9_121">
<rect width="19" height="21" fill="white"/>
</clipPath>
</defs>
</svg>
