<svg width="14" height="19" viewBox="0 0 14 19" fill="none" xmlns="http://www.w3.org/2000/svg">
<g clip-path="url(#clip0_9_46)">
<path d="M3.9733 14.6916H12.1395V4.32989H3.98517C3.76855 5.50742 2.91692 5.18544 2.14541 5.20691V1.21433C2.48665 0.88315 2.83977 0.539703 3.3828 0.012266C6.08309 0.012266 9.08903 0.024532 12.095 3.63289e-08C12.6083 -0.00306646 13.0742 0.199322 13.362 0.505972C13.6884 0.855552 13.8131 1.41979 13.9674 1.91349C14.0415 2.14348 13.9792 2.41946 13.9792 2.67398C13.9792 7.2124 13.9792 11.7508 13.9792 16.2892C13.9792 16.7768 13.9466 17.2184 13.7181 17.709C13.2997 18.6044 13.0208 18.9601 12.1424 18.9939C11.6973 19.0123 11.2522 18.9939 10.8071 18.9939H3.28487C2.93176 18.6075 2.59941 18.2456 2.13651 17.7397V13.8544C2.89021 13.7931 3.71811 13.4558 3.97033 14.6916H3.9733ZM12.1662 1.59458H3.91692V2.4072H12.1662V1.59458ZM3.91989 17.4177H12.2107C12.187 17.0896 12.1662 16.8136 12.1484 16.5897H3.91989V17.4177Z" fill="#494C5A"/>
<path d="M4.35312 7.66624C3.45105 7.66624 2.72701 7.68157 2.00594 7.6601C1.48665 7.64477 1.15728 7.29519 1.22849 6.83522C1.29378 6.41511 1.51039 6.12992 1.98814 6.13299C3.46885 6.14526 4.94956 6.12379 6.42731 6.14526C6.91099 6.15139 7.14244 6.44884 7.14838 7.03454C7.16025 8.35926 7.16321 9.68092 7.14838 11.0056C7.13947 11.7355 6.9644 11.8949 6.18398 11.9532C6.04452 11.9655 5.90208 11.9348 5.62612 11.9133C5.50743 11.0608 5.38873 10.1992 5.25223 9.21175C5.02078 9.36508 4.82493 9.61346 4.61722 9.82812C3.56677 10.9045 2.50743 11.9716 1.48665 13.0755C1.18102 13.4067 0.854608 13.6244 0.474786 13.4527C0.100898 13.2841 -0.0712084 12.8946 0.0296818 12.4346C0.0504533 12.3365 0.0326491 12.2322 0.0326491 12.0575C1.39763 10.6714 2.79526 9.24855 4.35312 7.66624Z" fill="#494C5A"/>
</g>
<defs>
<clipPath id="clip0_9_46">
<rect width="14" height="19" fill="white"/>
</clipPath>
</defs>
</svg>
